<mxfile host="app.diagrams.net" modified="2024-06-24T01:26:58.644Z" agent="Mozilla/5.0 (Windows NT 10.0; Win64; x64) AppleWebKit/537.36 (KHTML, like Gecko) Chrome/126.0.0.0 Safari/537.36 Edg/126.0.0.0" version="24.6.0" etag="ER_gw3sqIZn5PB1uiIeh" type="github">
  <diagram name="Page-1" id="WYtM07FXN9FArE3MaMec">
    <mxGraphModel>
      <root>
        <mxCell id="0" />
        <mxCell id="1" parent="0" />
      </root>
    </mxGraphModel>
  </diagram>
</mxfile>
